<?xml version="1.0" encoding="utf-8"?>
<!-- Generator: Adobe Illustrator 26.3.1, SVG Export Plug-In . SVG Version: 6.00 Build 0)  -->
<svg version="1.1" id="Calque_1" xmlns="http://www.w3.org/2000/svg" xmlns:xlink="http://www.w3.org/1999/xlink" x="0px" y="0px"
	 viewBox="0 0 152.07 169.85" style="enable-background:new 0 0 152.07 169.85;" xml:space="preserve">
<style type="text/css">
	.st0{fill:#A7C484;}
	.st1{fill:none;}
	.st2{font-family:'RocGrotesk-Bold';}
	.st3{font-size:16px;}
	.st4{fill:#ACDBF6;}
	.st5{fill:#F28D5B;}
	.st6{fill:#FCDE4A;}
</style>
<g>
	<g>
		<path class="st0" d="M78.07,21.98c0-10.17,4.91-16.2,11.26-16.2c6.35,0,11.26,6.03,11.26,16.2c0,10.36-4.91,16.49-11.26,16.49
			C82.98,38.46,78.07,32.34,78.07,21.98z M95.17,22.03c0-6.31-2.52-10.03-5.84-10.03c-3.32,0-5.84,3.71-5.84,10.03
			c0,6.41,2.52,10.22,5.84,10.22C92.65,32.25,95.17,28.44,95.17,22.03z"/>
		<path class="st0" d="M102.89,4.98h4.85v6.95c0,0.61-0.1,2.39-0.19,3.57h0.06c0.8-3,2.65-4.43,6.22-4.43c3.8,0,6.25,2.07,6.25,6.16
			v9.86h-4.85v-8.77c0-2.23-1.24-3.22-3.41-3.22c-2.55,0-4.08,1.5-4.08,4.5v7.5h-4.85V4.98z"/>
	</g>
	<rect x="71.89" y="151.87" class="st1" width="38.6" height="14.45"/>
	<text transform="matrix(1 0 0 1 71.888 162.9563)" class="st0 st2 st3">Lyon</text>
	<rect x="37.45" y="156.39" class="st0" width="30.61" height="3.64"/>
	<g>
		<path class="st4" d="M3.82,41.18l12.78-5.73l23.12,33.79l0.16-0.07L30.97,29l12.06-5.41l23.84,33.47l0.08-0.04L57.4,17.14
			l11.34-5.09L81.2,69.34l-14.93,6.7L44.35,44.51l-0.24,0.11l8.58,37.51l-14.37,6.45L3.82,41.18z"/>
	</g>
	<g>
		<path class="st5" d="M118.14,80.71L97.4,79.4l-4.7,11.58l-13.25-0.83l25.7-56.69l16.09,1.01l14.36,59.22l-15.06-0.95L118.14,80.71
			z M116.34,71.55l-5.17-25.85l-0.16-0.01l-10.05,24.89L116.34,71.55z"/>
	</g>
	<g>
		<path class="st0" d="M33.31,107.49l8.24,8.42c-4.54,4.45-5.85,9,0.36,15.35c6.27,6.4,10.24,5.34,12.93,2.71
			c1.79-1.75,2.27-3.57,1.37-5.64c-1-2.3-4.2-6.85-6.79-10.52c-3.03-4.38-5.92-9-6.47-12.76c-0.64-4.11,1.06-8.26,5.09-12.21
			c7.94-7.77,18.92-7.56,29.64,3.4c11.8,12.06,10.07,21.43,0.6,30.7l-8.19-8.36c4.8-4.7,5.22-9.52,0.14-14.71
			c-5.02-5.13-9.28-5.26-12.1-2.5c-2.05,2-2.69,3.65-2.03,5.6c0.71,2.13,3.9,6.8,6.48,10.6c3.41,5.02,5.8,9,6.66,12.57
			c1.05,4.28-0.54,8.66-4.51,12.55c-7.17,7.02-17.13,9.65-30.39-3.91C21.59,125.74,25.56,115.07,33.31,107.49z"/>
	</g>
	<g>
		<path class="st6" d="M105.64,94.67l11.54,5.81l-10,19.85l19.84,10l10-19.85l11.54,5.81l-25.81,51.22l-11.54-5.81L122,140.3
			l-19.84-10l-10.79,21.41l-11.54-5.81L105.64,94.67z"/>
	</g>
</g>
</svg>
